<?xml version="1.0" standalone="no"?>
<!DOCTYPE svg PUBLIC "-//W3C//DTD SVG 20010904//EN"
 "http://www.w3.org/TR/2001/REC-SVG-20010904/DTD/svg10.dtd">
<svg version="1.0" xmlns="http://www.w3.org/2000/svg"
 width="674.000000pt" height="240.000000pt" viewBox="0 0 674.000000 240.000000"
 preserveAspectRatio="xMidYMid meet">

<g transform="translate(0.000000,240.000000) scale(0.100000,-0.100000)"
fill="#000000" stroke="none">
<path d="M1091 2089 c-60 -12 -121 -50 -171 -106 -46 -53 -122 -201 -140 -275
l-12 -48 -98 -30 c-54 -17 -102 -36 -108 -43 -5 -6 -26 -136 -46 -287 -20
-151 -52 -392 -71 -535 -18 -143 -31 -263 -27 -267 4 -3 120 -27 257 -53 138
-25 358 -66 489 -91 132 -25 245 -43 251 -40 8 3 14 59 19 173 3 92 18 424 31
738 31 724 32 658 -3 650 -26 -5 -30 -2 -48 37 -34 77 -92 128 -145 128 -11 0
-34 11 -51 25 -16 14 -36 25 -43 25 -7 0 -19 2 -27 4 -7 2 -33 0 -57 -5z m69
-66 c-1 -5 -18 -20 -40 -35 -47 -32 -93 -108 -121 -199 l-20 -67 -58 -16 c-31
-9 -63 -16 -69 -16 -8 0 -3 23 14 67 48 128 113 215 187 252 41 20 107 29 107
14z m148 -59 c23 -16 62 -83 62 -107 0 -8 -10 -17 -22 -21 -50 -13 -55 -9 -61
52 -4 32 -9 66 -13 75 -8 21 5 22 34 1z m-87 -39 c4 -17 7 -51 8 -76 l1 -46
-87 -26 c-47 -15 -87 -26 -89 -24 -10 10 52 128 88 164 48 49 70 51 79 8z
m-15 -456 c25 -7 43 -17 41 -23 -2 -6 -19 -52 -37 -103 l-32 -91 -40 14 c-55
19 -138 18 -166 -2 -31 -21 -44 -58 -32 -88 5 -13 42 -49 84 -80 80 -60 132
-127 142 -183 4 -19 4 -66 2 -103 -15 -206 -216 -297 -425 -192 -86 44 -89 49
-68 126 25 92 24 92 82 56 100 -62 183 -48 183 31 0 37 -6 46 -84 122 -97 96
-111 125 -104 231 12 178 147 293 346 295 35 1 83 -4 108 -10z"/>
<path d="M1516 1858 c-6 -20 -66 -1541 -61 -1546 3 -4 443 87 508 105 9 2 17
14 17 25 0 11 -18 140 -40 287 -52 355 -150 1020 -150 1025 0 2 -36 7 -80 10
-80 7 -80 8 -127 57 -48 51 -61 58 -67 37z"/>
<path d="M3143 1695 c-71 -30 -84 -136 -32 -263 44 -107 44 -182 0 -272 -68
-142 -22 -220 129 -220 55 0 65 3 91 29 35 35 36 51 8 135 -15 44 -19 76 -15
100 8 39 47 76 81 76 13 0 45 18 71 40 57 47 71 49 80 14 9 -33 -11 -68 -59
-106 -44 -35 -87 -113 -87 -159 0 -67 57 -117 145 -126 120 -14 232 83 178
155 -10 14 -35 31 -54 37 -72 24 -72 93 0 202 71 107 78 190 21 275 -58 87
-190 126 -244 72 -20 -19 -20 -66 -2 -137 24 -92 -5 -157 -71 -157 -54 0 -71
26 -70 107 1 85 -14 131 -56 170 -40 38 -73 46 -114 28z"/>
<path d="M2654 1671 c-164 -56 -229 -127 -204 -220 18 -67 66 -104 161 -125
14 -3 51 -28 83 -56 79 -69 104 -80 181 -80 66 0 66 0 63 -27 -4 -35 -59 -73
-105 -73 -55 0 -101 28 -155 94 -80 98 -128 117 -195 76 -46 -28 -65 -63 -66
-120 -1 -42 4 -55 28 -80 56 -58 229 -120 336 -120 72 0 208 46 247 83 57 55
66 151 22 237 -24 47 -63 74 -140 96 -77 23 -108 40 -161 89 -25 24 -60 50
-77 59 -35 18 -43 50 -15 60 24 10 103 -4 136 -23 17 -10 38 -38 55 -73 29
-65 60 -84 117 -74 20 4 50 20 68 36 25 22 32 36 32 67 0 55 -28 91 -89 118
-29 13 -74 37 -101 54 -63 40 -113 40 -221 2z"/>
<path d="M3996 1685 c-78 -22 -172 -73 -205 -111 -37 -41 -39 -73 -11 -144 11
-28 20 -66 20 -85 0 -19 -9 -52 -20 -72 -34 -63 -23 -132 28 -185 14 -16 32
-28 40 -28 7 0 42 -28 77 -61 70 -67 75 -68 160 -35 22 8 62 15 88 16 84 0
133 18 173 63 l37 40 -8 91 c-11 129 -9 155 20 217 43 92 37 112 -52 197 -43
40 -91 80 -108 89 -40 22 -175 27 -239 8z m145 -185 c26 -15 59 -82 59 -123 0
-18 -7 -57 -16 -86 -10 -34 -13 -67 -8 -97 5 -35 3 -49 -11 -64 -36 -40 -89
-13 -97 48 -4 23 -24 65 -52 106 -59 86 -60 143 -4 204 24 24 93 31 129 12z"/>
<path d="M4530 1678 c-18 -13 -41 -39 -51 -58 -30 -56 -24 -104 26 -210 25
-52 45 -106 45 -120 0 -14 -18 -63 -40 -110 -57 -122 -54 -192 10 -225 41 -21
82 -19 150 10 73 31 134 32 243 4 49 -12 94 -18 114 -14 76 14 113 90 74 152
-30 47 -70 55 -177 32 -187 -39 -280 -12 -262 78 3 15 12 18 58 16 30 -1 82
-2 115 -3 93 -3 224 14 241 31 8 9 17 31 20 50 5 28 1 41 -17 63 -36 40 -84
44 -153 13 -86 -40 -115 -42 -156 -15 -46 31 -62 74 -35 95 12 8 31 12 45 9
65 -14 218 -18 253 -7 116 39 114 187 -3 222 -36 11 -44 9 -121 -30 -108 -54
-142 -54 -243 -1 -41 22 -82 40 -89 40 -8 0 -29 -10 -47 -22z"/>
<path d="M2780 850 c-11 -11 -20 -27 -20 -35 0 -11 -13 -7 -50 15 -57 34 -93
37 -147 15 -52 -22 -73 -44 -73 -77 0 -32 31 -68 58 -68 10 0 33 -13 52 -30
23 -19 46 -29 68 -30 26 0 33 -4 30 -17 -2 -12 -14 -19 -36 -21 -27 -3 -39 4
-73 37 -41 42 -57 48 -89 31 -20 -11 -33 -50 -24 -75 22 -56 193 -82 252 -38
l30 22 16 -24 c13 -19 25 -25 55 -25 53 0 69 20 52 66 -15 43 -7 72 24 80 13
3 29 12 36 20 6 8 15 14 20 14 16 0 9 -39 -9 -52 -23 -16 -42 -51 -42 -77 0
-47 92 -69 130 -31 11 11 20 24 20 29 0 12 -28 41 -40 41 -19 0 -17 32 6 75
13 25 24 61 24 80 0 39 -32 80 -70 89 -42 9 -55 -7 -55 -71 0 -56 -1 -58 -27
-61 -26 -3 -28 -1 -28 35 0 76 -51 122 -90 83z m-145 -56 c8 -4 23 -20 31 -36
13 -24 20 -29 47 -26 21 2 35 11 42 25 11 21 12 21 23 -11 14 -39 15 -95 3
-115 -8 -12 -11 -9 -16 11 -8 32 -41 63 -76 71 -14 4 -43 20 -64 37 -21 16
-42 30 -46 30 -5 0 -9 5 -9 10 0 11 39 13 65 4z"/>
<path d="M3154 832 c-74 -33 -94 -49 -94 -72 0 -60 45 -68 86 -15 14 19 30 35
35 35 19 0 8 -48 -16 -70 -15 -14 -25 -35 -25 -51 0 -16 -6 -33 -12 -38 -7 -6
-26 -21 -42 -34 -21 -17 -27 -29 -22 -42 5 -15 13 -16 44 -10 48 11 129 11
168 1 26 -7 36 -4 53 13 43 43 9 111 -46 90 -62 -23 -90 3 -55 51 12 15 24 40
28 54 6 27 18 33 29 16 11 -18 53 -11 60 10 8 26 -10 57 -45 75 -41 21 -76 18
-146 -13z"/>
<path d="M3373 848 c-6 -7 -13 -59 -17 -115 -8 -114 4 -159 47 -188 20 -13 30
-14 46 -5 32 17 26 52 -15 88 -43 38 -45 77 -4 77 25 0 28 -6 44 -87 10 -44
53 -88 88 -88 66 0 87 32 62 97 -16 42 -16 47 2 102 l18 59 14 -37 c23 -60 25
-87 8 -119 -41 -80 -4 -121 81 -90 24 9 46 9 85 1 70 -14 98 -3 98 37 0 37
-29 52 -75 39 -47 -14 -101 -11 -115 6 -20 24 -4 30 83 31 64 2 83 6 93 19 9
12 10 24 4 35 -14 27 -36 31 -76 14 -42 -18 -84 -7 -84 22 0 14 8 16 56 11 64
-7 98 3 114 33 27 50 -46 92 -94 55 -26 -20 -68 -19 -105 3 -35 19 -58 11 -78
-28 l-11 -22 -13 23 c-15 30 -28 39 -55 39 -40 0 -49 -24 -30 -81 20 -65 21
-129 2 -129 -26 0 -46 30 -46 71 0 76 -44 139 -96 139 -12 0 -26 -6 -31 -12z"/>
<path d="M4256 839 c-55 -43 -72 -112 -36 -144 18 -16 20 -27 15 -69 -3 -28
-2 -57 3 -63 13 -20 121 -37 148 -24 48 21 104 82 104 112 0 53 -69 61 -85 9
-4 -11 -22 -27 -42 -35 -64 -27 -68 -18 -20 54 36 56 57 69 69 46 19 -33 68 0
68 46 0 35 -18 49 -64 49 -25 0 -51 8 -66 20 -32 25 -61 25 -94 -1z"/>
<path d="M4565 841 c-62 -28 -71 -44 -57 -97 8 -31 9 -51 2 -64 -21 -40 -11
-66 41 -110 49 -41 52 -42 89 -31 20 6 48 11 61 11 14 0 35 7 48 16 21 15 23
22 18 72 -4 39 -1 64 9 85 21 39 11 66 -37 105 -33 26 -50 32 -88 32 -25 0
-64 -9 -86 -19z m109 -80 c14 -15 16 -30 10 -85 -6 -56 -10 -66 -26 -66 -10 0
-21 8 -24 18 -3 9 -15 36 -26 59 -21 39 -21 42 -5 67 20 31 47 33 71 7z"/>
<path d="M4822 853 c-24 -10 -31 -49 -18 -99 10 -37 10 -68 3 -121 -11 -79 -2
-103 34 -103 30 0 42 38 31 100 -6 30 -8 60 -5 67 8 20 28 9 26 -13 -7 -53 21
-83 58 -63 17 9 19 19 17 71 -2 48 0 63 14 71 29 19 32 1 14 -80 -21 -104 -9
-153 40 -153 14 0 30 10 40 26 16 24 16 28 -6 80 -22 55 -22 62 1 141 12 38
11 44 -6 63 -23 25 -52 25 -90 0 -38 -25 -56 -25 -97 0 -35 21 -36 21 -56 13z"/>
<path d="M4017 661 c-37 -35 -40 -41 -30 -63 7 -12 13 -32 15 -43 4 -28 95
-36 104 -8 3 10 11 28 16 40 8 17 7 31 -7 60 -31 65 -41 66 -98 14z"/>
</g>
</svg>
